<svg xmlns="http://www.w3.org/2000/svg" xmlns:xlink="http://www.w3.org/1999/xlink" viewBox="0 0 290 290">
  <defs>
    <linearGradient id="linear-gradient" x1="145.2" y1="17.8" x2="145.2" y2="315.1" gradientUnits="userSpaceOnUse">
      <stop offset="0" stop-color="#f2c94c"/>
      <stop offset="1" stop-color="#f2994a"/>
    </linearGradient>
    <linearGradient id="linear-gradient-2" x1="123.9" y1="29.7" x2="123.9" y2="283.5" xlink:href="#linear-gradient"/>
    <linearGradient id="linear-gradient-3" x1="178" y1="308.5" x2="107.6" y2="89.4" gradientUnits="userSpaceOnUse">
      <stop offset="0" stop-color="#b8e9e6"/>
      <stop offset="1" stop-color="#fff"/>
    </linearGradient>
    <linearGradient id="linear-gradient-4" x1="205" y1="270.8" x2="80.8" y2="54.8" xlink:href="#linear-gradient-3"/>
    <linearGradient id="linear-gradient-5" x1="137.8" y1="171.3" x2="62.7" y2="26.6" xlink:href="#linear-gradient-3"/>
    <linearGradient id="linear-gradient-6" x1="189" y1="306.7" x2="125.4" y2="109" xlink:href="#linear-gradient-3"/>
    <linearGradient id="linear-gradient-7" x1="205" y1="230.2" x2="80.8" y2="14.2" xlink:href="#linear-gradient-3"/>
    <linearGradient id="linear-gradient-9" x1="145.2" y1="127.7" x2="145.2" y2="326.2" gradientUnits="userSpaceOnUse">
      <stop offset="0" stop-color="#ffca00"/>
      <stop offset="1" stop-color="#fff"/>
    </linearGradient>
    <linearGradient id="linear-gradient-10" x1="203.7" y1="230.2" x2="79.4" y2="14.2" xlink:href="#linear-gradient-3"/>
    <linearGradient id="linear-gradient-11" x1="109.6" y1="235.6" x2="73.3" y2="150.4" gradientUnits="userSpaceOnUse">
      <stop offset="0" stop-color="#a4bcda"/>
      <stop offset="1" stop-color="#d2e1ff"/>
    </linearGradient>
    <linearGradient id="linear-gradient-13" x1="194.2" y1="191.7" x2="157.9" y2="106.6" xlink:href="#linear-gradient-11"/>
    <linearGradient id="linear-gradient-15" x1="194.2" y1="280.4" x2="157.9" y2="195.3" xlink:href="#linear-gradient-11"/>
    <clipPath id="clip-path">
      <path id="mask-thunder" fill="none" d="M110 112h71v169h-71z"/>
    </clipPath>
  </defs>
  <g id="Layer_2" data-name="Layer 2">
    <g id="weather-icons">
      <circle id="clear-sky" cx="145.2" cy="145.2" r="145.2" fill="url(#linear-gradient)"/>
      <g id="few-cloouds">
        <circle id="few-cloouds-sun" cx="123.9" cy="138.4" r="123.9" fill="url(#linear-gradient-2)"/>
        <path id="few-cloouds-cloud" d="M208 119a71 71 0 00-134 29 71 71 0 100 142h130a86 86 0 004-171z" fill="url(#linear-gradient-3)"/>
      </g>
      <path id="scttered-clouds" d="M208 78a71 71 0 00-134 29 71 71 0 100 143h130a86 86 0 004-172z" fill="url(#linear-gradient-4)"/>
      <g id="broken-clouds">
        <path id="broken-clouds-1" d="M180 69A62 62 0 0063 94h-1a62 62 0 000 125h115a75 75 0 003-150z" fill="url(#linear-gradient-5)"/>
        <path id="broken-clouds-2" d="M216 135a64 64 0 00-121 27 64 64 0 100 128h118a78 78 0 003-155z" fill="url(#linear-gradient-6)"/>
      </g>
      <g id="rain">
        <path id="rain-cloud" d="M208 37A71 71 0 0074 67a71 71 0 100 142h130a86 86 0 004-172z" fill="url(#linear-gradient-7)"/>
        <g id="rain-1" fill="none" stroke="#9bdadd" stroke-linecap="round" stroke-miterlimit="10" stroke-width="8">
          <path d="M117 164l-10 11"/>
          <path stroke-dasharray="32 21" d="M92 190l-68 68"/>
          <path d="M16 265L5 276"/>
        </g>
        <g id="rain-2" fill="none" stroke="#9bdadd" stroke-linecap="round" stroke-miterlimit="10" stroke-width="8">
          <path d="M160 164l-10 11"/>
          <path stroke-dasharray="32 21" d="M135 190l-68 68"/>
          <path d="M59 265l-11 11"/>
        </g>
        <g id="rain-3" fill="none" stroke="#9bdadd" stroke-linecap="round" stroke-miterlimit="10" stroke-width="8">
          <path d="M204 164l-11 11"/>
          <path stroke-dasharray="32 21" d="M178 190l-68 68"/>
          <path d="M102 265l-10 11"/>
        </g>
      </g>
      <g id="thunderstorm">
        <path id="thunderstorm-cloud" d="M208 37A71 71 0 0074 67a71 71 0 100 142h130a86 86 0 004-172z" fill="url(#linear-gradient-7)"/>
        <g clip-path="url(#clip-path)">
          <path id="thunderstorm-thunder" fill="url(#linear-gradient-9)" d="M175 112l-65 62 33 44-27 63 65-64-35-43 29-62z"/>
        </g>
      </g>
      <g id="snow">
        <path id="snow-cloud" d="M206 37A71 71 0 0073 67a71 71 0 100 142h130a86 86 0 003-172z" fill="url(#linear-gradient-10)"/>
        <g id="snow-1" fill="url(#linear-gradient-11)">
          <path d="M98 199l-7 4a1 1 0 00-1 1v8a1 1 0 001 1l7 4a1 1 0 001 0l6-4a1 1 0 001-1v-8a1 1 0 00-1-1l-6-4a1 1 0 00-1 0zm6 6v7l-6 3-6-3v-7l6-3z"/>
          <path d="M125 215l-9 3-4-3v-13l4-3 9 2a1 1 0 000-2l-6-1 6-4a1 1 0 00-1-2l-6 4 1-7a1 1 0 10-2 0l-2 8-4 3-12-7v-5l6-6a1 1 0 000-2 1 1 0 00-1 0l-5 5v-7a1 1 0 00-2 0v7l-5-5a1 1 0 00-1 0 1 1 0 000 2l6 6v5l-11 7-5-3-2-8a1 1 0 00-2-1 1 1 0 000 1l1 7-6-4a1 1 0 10-1 2l6 4-6 1a1 1 0 000 2l9-2 4 3v13l-4 3-9-3a1 1 0 000 2l6 2-6 4a1 1 0 001 2l6-4-1 7a1 1 0 000 1 1 1 0 001 0 1 1 0 001-1l2-9 5-2 11 6v6l-6 6a1 1 0 000 2 1 1 0 001 0l5-5v7a1 1 0 002 0v-7l5 5a1 1 0 001 0 1 1 0 000-2l-6-6v-6l12-6 4 3 3 8a1 1 0 001 1 1 1 0 001-1l-2-7 6 4a1 1 0 001-1 1 1 0 000-1l-6-4 6-2a1 1 0 000-2zm-16 0l-11 7-11-7v-13l11-7 11 7z"/>
        </g>
        <g id="snow-2" fill="url(#linear-gradient-13)">
          <path d="M182 156l-7 4v8a1 1 0 000 1l7 4a1 1 0 001 1 1 1 0 000-1l7-4a1 1 0 001-1v-8a1 1 0 00-1 0l-7-4a1 1 0 00-1 0zm7 5v7l-6 3-6-3v-7l6-3z"/>
          <path d="M209 171l-8 3-5-3v-13l5-3 8 3a1 1 0 001 0 1 1 0 000-3l-7-1 7-4a1 1 0 00-1-2l-7 4 2-7a1 1 0 10-2 0l-2 8-5 3-11-7v-5l6-6a1 1 0 00-1-2l-5 5v-7a1 1 0 00-2 0v7l-5-5a1 1 0 00-2 2l7 6v5l-12 7-4-3-3-8a1 1 0 00-2 0l2 7-6-4a1 1 0 10-1 2l6 4-7 1a1 1 0 001 3l8-3 5 3v13l-5 3-8-3a1 1 0 10-1 3l7 1-6 4a1 1 0 000 2 1 1 0 001 0l6-4-2 7a1 1 0 001 1 1 1 0 001-1l3-8 4-3 12 6v6l-7 6a1 1 0 000 2 1 1 0 002 0l5-5v7a1 1 0 002 0v-7l5 5a1 1 0 001 0 1 1 0 000-2l-6-6v-6l11-6 5 3 2 8a1 1 0 001 1 1 1 0 001-1l-2-7 7 4a1 1 0 001-2l-7-4 7-1a1 1 0 00-1-3zm-15 0l-11 7-12-7v-13l12-7 11 7z"/>
        </g>
        <g id="snow-3" fill="url(#linear-gradient-15)">
          <path d="M182 244l-7 4a1 1 0 000 1v8a1 1 0 000 1l7 4a1 1 0 001 0l7-4a1 1 0 001-1v-8a1 1 0 00-1-1l-7-4a1 1 0 00-1 0zm7 6v7l-6 3-6-3v-7l6-4z"/>
          <path d="M209 260l-8 2-5-2v-13l5-3 8 2h1a1 1 0 000-2l-7-2 7-3a1 1 0 10-1-2l-7 4 2-7a1 1 0 00-2-1l-2 9-5 3-11-7v-5l6-7a1 1 0 00-1-1l-5 5v-7a1 1 0 00-2 0v7l-5-5a1 1 0 00-2 2l7 6v5l-12 7-4-3-3-9a1 1 0 00-2 1l2 7-6-4a1 1 0 10-1 2l6 3-7 2a1 1 0 001 2l8-2 5 3v13l-5 3-8-3a1 1 0 10-1 2l7 2-6 4a1 1 0 000 2 1 1 0 001-1l6-3-2 6a1 1 0 001 2 1 1 0 001-1l2-9 5-2 12 6v6l-7 6a1 1 0 000 1 1 1 0 002 0l5-4v7a1 1 0 002 0v-7l4 4a1 1 0 002 0 1 1 0 000-1l-6-6v-6l11-6 5 2 2 9a1 1 0 001 1 1 1 0 001-2l-2-6 7 3a1 1 0 000 1 1 1 0 001-2l-7-4 7-2a1 1 0 10-1-2zm-15 0l-11 6-12-6v-13l12-7 11 7z"/>
        </g>
      </g>
      <g id="mist" fill="none" stroke="#9bdadd" stroke-linecap="round" stroke-linejoin="round" stroke-width="8">
        <path d="M94 97h140"/>
        <path d="M61 71h139"/>
        <path d="M43 123h219"/>
        <path d="M60 150h141"/>
        <path d="M47 176h136"/>
        <path d="M107 202h114"/>
        <path d="M79 229h114"/>
      </g>
    </g>
  </g>
</svg>
